<svg id="Grupo_4031" data-name="Grupo 4031" xmlns="http://www.w3.org/2000/svg" xmlns:xlink="http://www.w3.org/1999/xlink" width="196.722" height="60.193" viewBox="0 0 196.722 60.193">
  <defs>
    <clipPath id="clip-path">
      <rect id="Rectángulo_2590" data-name="Rectángulo 2590" width="196.722" height="60.193" fill="none"/>
    </clipPath>
  </defs>
  <rect id="Rectángulo_2586" data-name="Rectángulo 2586" width="0.796" height="5.98" transform="translate(42.167 54.12)" fill="#011122"/>
  <g id="Grupo_4015" data-name="Grupo 4015">
    <g id="Grupo_4014" data-name="Grupo 4014" clip-path="url(#clip-path)">
      <path id="Trazado_1124" data-name="Trazado 1124" d="M224.134,277.7v.687h.017a1.5,1.5,0,0,1,1.407-.787,1.882,1.882,0,0,1,.712.117,1.175,1.175,0,0,1,.461.327,1.212,1.212,0,0,1,.247.5,2.676,2.676,0,0,1,.071.641v2.848h-.712V279.1a.86.86,0,0,0-.234-.637.871.871,0,0,0-.645-.235,1.45,1.45,0,0,0-.565.1,1.062,1.062,0,0,0-.4.285,1.233,1.233,0,0,0-.239.431,1.752,1.752,0,0,0-.079.54v2.446h-.712V277.7Z" transform="translate(-178.65 -221.93)" fill="#011122"/>
      <path id="Trazado_1125" data-name="Trazado 1125" d="M250.49,277.7v.687h.017a1.5,1.5,0,0,1,1.407-.787,1.883,1.883,0,0,1,.712.117,1.175,1.175,0,0,1,.461.327,1.212,1.212,0,0,1,.247.5,2.677,2.677,0,0,1,.071.641v2.848h-.712V279.1a.859.859,0,0,0-.235-.637.871.871,0,0,0-.645-.235,1.45,1.45,0,0,0-.565.1,1.06,1.06,0,0,0-.4.285,1.23,1.23,0,0,0-.239.431,1.759,1.759,0,0,0-.079.54v2.446h-.712V277.7Z" transform="translate(-199.721 -221.93)" fill="#011122"/>
      <path id="Trazado_1126" data-name="Trazado 1126" d="M275.137,278.978a2.016,2.016,0,0,1,.4-.72,1.9,1.9,0,0,1,.662-.482,2.427,2.427,0,0,1,1.813,0,1.9,1.9,0,0,1,.657.482,2.024,2.024,0,0,1,.4.72,2.892,2.892,0,0,1,.134.892,2.853,2.853,0,0,1-.134.888,2.027,2.027,0,0,1-.4.716,1.856,1.856,0,0,1-.657.478,2.48,2.48,0,0,1-1.813,0,1.848,1.848,0,0,1-.662-.478,2.02,2.02,0,0,1-.4-.716,2.836,2.836,0,0,1-.134-.888,2.874,2.874,0,0,1,.134-.892m.724,1.591a1.46,1.46,0,0,0,.289.511,1.247,1.247,0,0,0,.431.314,1.312,1.312,0,0,0,1.047,0,1.251,1.251,0,0,0,.432-.314,1.466,1.466,0,0,0,.289-.511,2.385,2.385,0,0,0,0-1.4,1.514,1.514,0,0,0-.289-.515,1.233,1.233,0,0,0-.432-.318,1.312,1.312,0,0,0-1.047,0,1.229,1.229,0,0,0-.431.318,1.507,1.507,0,0,0-.289.515,2.393,2.393,0,0,0,0,1.4" transform="translate(-219.854 -221.93)" fill="#011122"/>
      <path id="Trazado_1127" data-name="Trazado 1127" d="M302.8,282.431l-1.608-4.33h.8l1.215,3.61h.017l1.181-3.61h.745l-1.583,4.33Z" transform="translate(-240.789 -222.33)" fill="#011122"/>
      <path id="Trazado_1128" data-name="Trazado 1128" d="M330.195,282.013a1.008,1.008,0,0,1-.511.109.612.612,0,0,1-.44-.155.673.673,0,0,1-.163-.507,1.7,1.7,0,0,1-.682.507,2.358,2.358,0,0,1-1.4.088,1.292,1.292,0,0,1-.456-.21,1,1,0,0,1-.306-.373,1.254,1.254,0,0,1-.113-.557,1.271,1.271,0,0,1,.126-.6,1.1,1.1,0,0,1,.331-.381,1.511,1.511,0,0,1,.469-.222,5.537,5.537,0,0,1,.54-.126q.293-.059.557-.088a3.084,3.084,0,0,0,.465-.084.77.77,0,0,0,.318-.159.388.388,0,0,0,.117-.306.71.71,0,0,0-.088-.377.6.6,0,0,0-.226-.218.92.92,0,0,0-.31-.1,2.328,2.328,0,0,0-.339-.025,1.5,1.5,0,0,0-.754.172.728.728,0,0,0-.327.649h-.712a1.536,1.536,0,0,1,.167-.679,1.27,1.27,0,0,1,.4-.448,1.686,1.686,0,0,1,.574-.247,3.025,3.025,0,0,1,.691-.075,4.057,4.057,0,0,1,.582.042,1.526,1.526,0,0,1,.524.171,1,1,0,0,1,.377.364,1.164,1.164,0,0,1,.142.61v2.223a1.65,1.65,0,0,0,.029.368q.029.117.2.117a.86.86,0,0,0,.218-.034Zm-1.156-2.22a.894.894,0,0,1-.352.146q-.218.046-.456.075c-.159.02-.32.042-.481.067a1.789,1.789,0,0,0-.436.121.789.789,0,0,0-.314.238.662.662,0,0,0-.121.421.573.573,0,0,0,.071.3.591.591,0,0,0,.184.2.775.775,0,0,0,.264.108,1.48,1.48,0,0,0,.318.033,1.7,1.7,0,0,0,.6-.1,1.273,1.273,0,0,0,.41-.242.948.948,0,0,0,.234-.317.8.8,0,0,0,.076-.321Z" transform="translate(-260.723 -221.929)" fill="#011122"/>
      <path id="Trazado_1129" data-name="Trazado 1129" d="M354.508,278.453a1.082,1.082,0,0,0-.72-.226,1.327,1.327,0,0,0-.645.142,1.152,1.152,0,0,0-.415.377,1.58,1.58,0,0,0-.222.54,2.943,2.943,0,0,0-.067.632,2.407,2.407,0,0,0,.071.586,1.562,1.562,0,0,0,.222.507,1.122,1.122,0,0,0,.393.356,1.18,1.18,0,0,0,.578.134,1.165,1.165,0,0,0,.825-.276,1.248,1.248,0,0,0,.364-.779h.729a2,2,0,0,1-.6,1.24,1.881,1.881,0,0,1-1.311.436,2.258,2.258,0,0,1-.875-.159,1.7,1.7,0,0,1-.637-.452,1.952,1.952,0,0,1-.385-.7,2.915,2.915,0,0,1-.13-.892,3.183,3.183,0,0,1,.126-.909,2.1,2.1,0,0,1,.381-.737,1.786,1.786,0,0,1,.641-.494,2.1,2.1,0,0,1,.9-.18,2.62,2.62,0,0,1,.691.088,1.688,1.688,0,0,1,.57.272,1.485,1.485,0,0,1,.406.465,1.708,1.708,0,0,1,.2.666h-.737a1.087,1.087,0,0,0-.352-.637" transform="translate(-281.158 -221.929)" fill="#011122"/>
      <path id="Trazado_1130" data-name="Trazado 1130" d="M378.623,269.872h.712v.871h-.712Zm.712,5.98h-.712v-4.33h.712Z" transform="translate(-302.694 -215.752)" fill="#011122"/>
      <path id="Trazado_1131" data-name="Trazado 1131" d="M389.783,270.93a2.018,2.018,0,0,1,.4-.72,1.89,1.89,0,0,1,.662-.482,2.425,2.425,0,0,1,1.813,0,1.9,1.9,0,0,1,.658.482,2.02,2.02,0,0,1,.4.72,2.888,2.888,0,0,1,.134.892,2.847,2.847,0,0,1-.134.888,2.023,2.023,0,0,1-.4.716,1.857,1.857,0,0,1-.658.478,2.48,2.48,0,0,1-1.813,0,1.844,1.844,0,0,1-.662-.478,2.02,2.02,0,0,1-.4-.716,2.836,2.836,0,0,1-.134-.888,2.876,2.876,0,0,1,.134-.892m.724,1.591a1.46,1.46,0,0,0,.289.511,1.25,1.25,0,0,0,.432.314,1.314,1.314,0,0,0,1.047,0,1.252,1.252,0,0,0,.431-.314,1.464,1.464,0,0,0,.289-.511,2.384,2.384,0,0,0,0-1.4,1.513,1.513,0,0,0-.289-.515,1.231,1.231,0,0,0-.431-.318,1.313,1.313,0,0,0-1.047,0,1.229,1.229,0,0,0-.432.318,1.508,1.508,0,0,0-.289.515,2.388,2.388,0,0,0,0,1.4m1.487-4.988-.8,1.357h.536l1.181-1.357Z" transform="translate(-311.509 -213.883)" fill="#011122"/>
      <path id="Trazado_1132" data-name="Trazado 1132" d="M418.594,277.7v.687h.017a1.5,1.5,0,0,1,1.407-.787,1.882,1.882,0,0,1,.712.117,1.175,1.175,0,0,1,.461.327,1.212,1.212,0,0,1,.247.5,2.675,2.675,0,0,1,.071.641v2.848H420.8V279.1a.861.861,0,0,0-.234-.637.871.871,0,0,0-.645-.235,1.451,1.451,0,0,0-.565.1,1.063,1.063,0,0,0-.4.285,1.233,1.233,0,0,0-.239.431,1.757,1.757,0,0,0-.079.54v2.446h-.712V277.7Z" transform="translate(-334.113 -221.93)" fill="#011122"/>
      <path id="Trazado_1133" data-name="Trazado 1133" d="M461.152,281.754a1.965,1.965,0,0,1-1.223.369,2.225,2.225,0,0,1-.9-.167,1.771,1.771,0,0,1-.641-.469,1.99,1.99,0,0,1-.389-.72,3.46,3.46,0,0,1-.147-.913,2.612,2.612,0,0,1,.151-.9,2.164,2.164,0,0,1,.423-.712,1.917,1.917,0,0,1,.645-.469,1.968,1.968,0,0,1,.817-.167,1.778,1.778,0,0,1,.959.239,1.9,1.9,0,0,1,.611.607,2.4,2.4,0,0,1,.318.8,3.448,3.448,0,0,1,.071.829h-3.241a1.714,1.714,0,0,0,.067.54,1.219,1.219,0,0,0,.243.452,1.2,1.2,0,0,0,.427.314,1.473,1.473,0,0,0,.611.117,1.232,1.232,0,0,0,.741-.209,1.012,1.012,0,0,0,.381-.637h.7a1.73,1.73,0,0,1-.628,1.1m-.172-2.781a1.222,1.222,0,0,0-.259-.389,1.236,1.236,0,0,0-.385-.259,1.217,1.217,0,0,0-.49-.1,1.237,1.237,0,0,0-.5.1,1.149,1.149,0,0,0-.381.264,1.257,1.257,0,0,0-.251.389,1.475,1.475,0,0,0-.109.473h2.488a1.464,1.464,0,0,0-.113-.477" transform="translate(-366.034 -221.93)" fill="#011122"/>
      <path id="Trazado_1134" data-name="Trazado 1134" d="M485.251,277.7v.687h.017a1.5,1.5,0,0,1,1.407-.787,1.882,1.882,0,0,1,.712.117,1.175,1.175,0,0,1,.461.327,1.215,1.215,0,0,1,.247.5,2.677,2.677,0,0,1,.071.641v2.848h-.712V279.1a.86.86,0,0,0-.234-.637.871.871,0,0,0-.645-.235,1.451,1.451,0,0,0-.565.1,1.062,1.062,0,0,0-.4.285,1.233,1.233,0,0,0-.239.431,1.759,1.759,0,0,0-.079.54v2.446h-.712V277.7Z" transform="translate(-387.403 -221.93)" fill="#011122"/>
      <path id="Trazado_1135" data-name="Trazado 1135" d="M526.349,277.7v.637h.017a1.688,1.688,0,0,1,2.127-.569.939.939,0,0,1,.461.569,1.511,1.511,0,0,1,.574-.544,1.62,1.62,0,0,1,.783-.193,2.263,2.263,0,0,1,.59.071,1.223,1.223,0,0,1,.452.222,1,1,0,0,1,.293.39,1.422,1.422,0,0,1,.1.574v3.174h-.712v-2.839a2.017,2.017,0,0,0-.034-.377.775.775,0,0,0-.126-.306.628.628,0,0,0-.256-.205,1.013,1.013,0,0,0-.423-.075,1.12,1.12,0,0,0-.829.3,1.087,1.087,0,0,0-.3.8v2.7h-.712v-2.839a1.826,1.826,0,0,0-.038-.385.814.814,0,0,0-.13-.306.609.609,0,0,0-.247-.2.96.96,0,0,0-.4-.071,1.065,1.065,0,0,0-.532.126,1.209,1.209,0,0,0-.561.666,1.038,1.038,0,0,0-.063.314v2.7h-.712V277.7Z" transform="translate(-420.259 -221.93)" fill="#011122"/>
      <path id="Trazado_1136" data-name="Trazado 1136" d="M563.4,278.978a2.017,2.017,0,0,1,.4-.72,1.9,1.9,0,0,1,.662-.482,2.427,2.427,0,0,1,1.813,0,1.9,1.9,0,0,1,.657.482,2.025,2.025,0,0,1,.4.72,2.893,2.893,0,0,1,.134.892,2.854,2.854,0,0,1-.134.888,2.029,2.029,0,0,1-.4.716,1.857,1.857,0,0,1-.657.478,2.48,2.48,0,0,1-1.813,0,1.848,1.848,0,0,1-.662-.478,2.02,2.02,0,0,1-.4-.716,2.835,2.835,0,0,1-.134-.888,2.873,2.873,0,0,1,.134-.892m.724,1.591a1.461,1.461,0,0,0,.289.511,1.245,1.245,0,0,0,.431.314,1.312,1.312,0,0,0,1.047,0,1.252,1.252,0,0,0,.432-.314,1.463,1.463,0,0,0,.289-.511,2.382,2.382,0,0,0,0-1.4,1.51,1.51,0,0,0-.289-.515,1.234,1.234,0,0,0-.432-.318,1.312,1.312,0,0,0-1.047,0,1.228,1.228,0,0,0-.431.318,1.508,1.508,0,0,0-.289.515,2.394,2.394,0,0,0,0,1.4" transform="translate(-450.31 -221.93)" fill="#011122"/>
      <path id="Trazado_1137" data-name="Trazado 1137" d="M591.062,282.431l-1.608-4.33h.8l1.215,3.61h.016l1.181-3.61h.745l-1.583,4.33Z" transform="translate(-471.245 -222.33)" fill="#011122"/>
      <path id="Trazado_1138" data-name="Trazado 1138" d="M615.767,269.872h.712v.871h-.712Zm.712,5.98h-.712v-4.33h.712Z" transform="translate(-492.281 -215.752)" fill="#011122"/>
      <path id="Trazado_1139" data-name="Trazado 1139" d="M628.632,277.7v.637h.017a1.687,1.687,0,0,1,2.127-.569.938.938,0,0,1,.461.569,1.511,1.511,0,0,1,.574-.544,1.619,1.619,0,0,1,.783-.193,2.263,2.263,0,0,1,.591.071,1.223,1.223,0,0,1,.452.222,1,1,0,0,1,.293.39,1.422,1.422,0,0,1,.1.574v3.174h-.712v-2.839a2.017,2.017,0,0,0-.033-.377.775.775,0,0,0-.126-.306.627.627,0,0,0-.256-.205,1.014,1.014,0,0,0-.423-.075,1.12,1.12,0,0,0-.829.3,1.086,1.086,0,0,0-.3.8v2.7h-.712v-2.839a1.83,1.83,0,0,0-.038-.385.822.822,0,0,0-.13-.306.609.609,0,0,0-.247-.2.96.96,0,0,0-.4-.071,1.064,1.064,0,0,0-.532.126,1.209,1.209,0,0,0-.561.666,1.03,1.03,0,0,0-.063.314v2.7h-.712V277.7Z" transform="translate(-502.03 -221.93)" fill="#011122"/>
      <path id="Trazado_1140" data-name="Trazado 1140" d="M666.929,269.872h.712v.871h-.712Zm.712,5.98h-.712v-4.33h.712Z" transform="translate(-533.183 -215.752)" fill="#011122"/>
      <path id="Trazado_1141" data-name="Trazado 1141" d="M681.255,281.754a1.964,1.964,0,0,1-1.223.369,2.226,2.226,0,0,1-.9-.167,1.773,1.773,0,0,1-.641-.469,1.991,1.991,0,0,1-.389-.72,3.465,3.465,0,0,1-.147-.913,2.607,2.607,0,0,1,.151-.9,2.16,2.16,0,0,1,.423-.712,1.917,1.917,0,0,1,.645-.469,1.969,1.969,0,0,1,.817-.167,1.779,1.779,0,0,1,.959.239,1.9,1.9,0,0,1,.611.607,2.4,2.4,0,0,1,.318.8,3.432,3.432,0,0,1,.071.829h-3.241a1.715,1.715,0,0,0,.067.54,1.219,1.219,0,0,0,.243.452,1.2,1.2,0,0,0,.427.314,1.474,1.474,0,0,0,.611.117,1.232,1.232,0,0,0,.741-.209,1.014,1.014,0,0,0,.381-.637h.7a1.73,1.73,0,0,1-.628,1.1m-.172-2.781a1.222,1.222,0,0,0-.26-.389,1.236,1.236,0,0,0-.385-.259,1.217,1.217,0,0,0-.49-.1,1.237,1.237,0,0,0-.5.1,1.15,1.15,0,0,0-.381.264,1.255,1.255,0,0,0-.251.389,1.473,1.473,0,0,0-.109.473H681.2a1.46,1.46,0,0,0-.113-.477" transform="translate(-541.998 -221.93)" fill="#011122"/>
      <path id="Trazado_1142" data-name="Trazado 1142" d="M705.354,277.7v.687h.017a1.5,1.5,0,0,1,1.407-.787,1.882,1.882,0,0,1,.712.117,1.175,1.175,0,0,1,.461.327,1.211,1.211,0,0,1,.247.5,2.675,2.675,0,0,1,.071.641v2.848h-.712V279.1a.861.861,0,0,0-.234-.637.871.871,0,0,0-.645-.235,1.451,1.451,0,0,0-.565.1,1.063,1.063,0,0,0-.4.285,1.234,1.234,0,0,0-.239.431,1.757,1.757,0,0,0-.079.54v2.446h-.712V277.7Z" transform="translate(-563.366 -221.93)" fill="#011122"/>
      <path id="Trazado_1143" data-name="Trazado 1143" d="M731.054,272.925v.628h-.863v2.689a.782.782,0,0,0,.021.2.206.206,0,0,0,.08.117.351.351,0,0,0,.164.055,2.412,2.412,0,0,0,.272.012h.327v.628h-.544a2.559,2.559,0,0,1-.473-.038.7.7,0,0,1-.318-.138.588.588,0,0,1-.18-.285,1.646,1.646,0,0,1-.059-.486v-2.756h-.737v-.628h.737v-1.3h.712v1.3Z" transform="translate(-582.6 -217.155)" fill="#011122"/>
      <path id="Trazado_1144" data-name="Trazado 1144" d="M746.291,278.978a2.016,2.016,0,0,1,.4-.72,1.894,1.894,0,0,1,.662-.482,2.427,2.427,0,0,1,1.813,0,1.9,1.9,0,0,1,.657.482,2.023,2.023,0,0,1,.4.72,2.891,2.891,0,0,1,.134.892,2.853,2.853,0,0,1-.134.888,2.027,2.027,0,0,1-.4.716,1.856,1.856,0,0,1-.657.478,2.48,2.48,0,0,1-1.813,0,1.846,1.846,0,0,1-.662-.478,2.019,2.019,0,0,1-.4-.716,2.836,2.836,0,0,1-.134-.888,2.875,2.875,0,0,1,.134-.892m.724,1.591a1.458,1.458,0,0,0,.289.511,1.247,1.247,0,0,0,.431.314,1.313,1.313,0,0,0,1.047,0,1.251,1.251,0,0,0,.432-.314,1.466,1.466,0,0,0,.289-.511,2.385,2.385,0,0,0,0-1.4,1.513,1.513,0,0,0-.289-.515,1.233,1.233,0,0,0-.432-.318,1.313,1.313,0,0,0-1.047,0,1.229,1.229,0,0,0-.431.318,1.505,1.505,0,0,0-.289.515,2.389,2.389,0,0,0,0,1.4" transform="translate(-596.522 -221.93)" fill="#011122"/>
      <path id="Trazado_1145" data-name="Trazado 1145" d="M27,61.469h6.328L19.968,96.2H13.359L0,61.469H6.4L16.734,90.928Z" transform="translate(0 -49.142)" fill="#011122"/>
      <rect id="Rectángulo_2587" data-name="Rectángulo 2587" width="5.766" height="47.06" transform="translate(76.144)" fill="#011122"/>
      <rect id="Rectángulo_2588" data-name="Rectángulo 2588" width="5.766" height="35.387" transform="translate(117.273 11.672)" fill="#011122"/>
      <path id="Trazado_1146" data-name="Trazado 1146" d="M657.878,91.156q-5.345,0-7.84-2.566t-2.5-8.121q0-5.624,3.023-7.98t10.265-2.356q2.389,0,4.711.211a38.986,38.986,0,0,1,4.359.633V67.6q0-3.866-1.969-5.554T661.6,60.361q-3.235,0-5.695.246a40.028,40.028,0,0,0-4.922.808V56.424a39.144,39.144,0,0,1,5.73-.984q2.917-.281,6.644-.282,6.257,0,9.281,2.918t3.023,9.035V90.594h-5.273l-.281-3.235h-.141a16.7,16.7,0,0,1-5.449,2.742,21.961,21.961,0,0,1-6.644,1.054m3.586-16.312q-4.783,0-6.644,1.16t-1.863,4.113q0,3.094,1.547,4.465t5.062,1.371a19.978,19.978,0,0,0,5.625-.843A16.35,16.35,0,0,0,669.9,83V75.548q-2.32-.351-4.324-.528t-4.113-.176" transform="translate(-517.685 -44.097)" fill="#011122"/>
      <path id="Trazado_1147" data-name="Trazado 1147" d="M838.421,31.916V47.06h-5.766V0h5.766V26.891h4.148L854.732,12.1h6.96L847.279,29.085,862.4,47.06h-7.242L842.78,31.916Z" transform="translate(-665.674 0)" fill="#011122"/>
      <rect id="Rectángulo_2589" data-name="Rectángulo 2589" width="6.187" height="5.976" transform="translate(117.062 0)" fill="#4ea0d6"/>
      <path id="Trazado_1148" data-name="Trazado 1148" d="M443.442,24.484h-5.2V29.4h5.2V47.26q0,6.891,2.706,9.7t9.035,2.812a22.888,22.888,0,0,0,3.692-.316,13.16,13.16,0,0,0,3.058-.808V53.8q-.986.21-2.637.422a23.431,23.431,0,0,1-2.918.21q-4.007,0-5.59-1.547t-1.582-5.836V29.4h12.374V24.48H449.209v-.009h.006V15.9h-5.774Z" transform="translate(-350.356 -12.715)" fill="#011122"/>
      <path id="Trazado_1149" data-name="Trazado 1149" d="M187.733,72.971a2.221,2.221,0,0,1,2.221-2.221h18.183a2.221,2.221,0,0,1,2.221,2.221v3.695l5.927,2.173V67.115a2.221,2.221,0,0,0-2.221-2.221H184.027a2.221,2.221,0,0,0-2.221,2.221v4.627l5.927,2.174Z" transform="translate(-145.347 -51.88)" fill="#011122"/>
      <path id="Trazado_1150" data-name="Trazado 1150" d="M210.358,173.623a2.221,2.221,0,0,1-2.221,2.221H189.954a2.221,2.221,0,0,1-2.221-2.221v-3.06l-5.927-2.173v11.089a2.221,2.221,0,0,0,2.221,2.221h30.036a2.222,2.222,0,0,0,2.221-2.221v-4l-5.927-2.173Z" transform="translate(-145.347 -134.621)" fill="#011122"/>
      <path id="Trazado_1151" data-name="Trazado 1151" d="M324.182,137.438V140.2l5.927,2.173v-2.765Z" transform="translate(-259.171 -109.876)" fill="#4ea0d6"/>
      <path id="Trazado_1152" data-name="Trazado 1152" d="M187.732,115.122l-5.927-2.173v2.777l5.927,2.173Z" transform="translate(-145.346 -90.298)" fill="#4ea0d6"/>
      <path id="Trazado_1153" data-name="Trazado 1153" d="M324.182,167.94l5.927,2.173v-2.777l-5.927-2.173Z" transform="translate(-259.171 -132.042)" fill="#4ea0d6"/>
      <path id="Trazado_1154" data-name="Trazado 1154" d="M187.732,145.694v-2.765l-5.927-2.173v2.765Z" transform="translate(-145.346 -112.528)" fill="#4ea0d6"/>
    </g>
  </g>
</svg>
